<svg width="18" height="18" viewBox="0 0 18 18" fill="none" xmlns="http://www.w3.org/2000/svg">
  <path d="M17.64 9.20455C17.64 8.56636 17.5827 7.95273 17.4764 7.36364H9V10.8455H13.8436C13.635 11.97 12.9968 12.9232 12.0436 13.5614V15.8191H14.9364C16.6282 14.26 17.64 11.9827 17.64 9.20455Z" fill="#4285F4"/>
  <path d="M9 18C11.43 18 13.4673 17.1941 14.9364 15.8191L12.0436 13.5614C11.2377 14.1014 10.2109 14.4205 9 14.4205C6.65636 14.4205 4.67182 12.8455 3.96364 10.72H0.978638V13.0491C2.43955 15.9564 5.45045 18 9 18Z" fill="#34A853"/>
  <path d="M3.96364 10.72C3.78364 10.18 3.68182 9.60364 3.68182 9C3.68182 8.39636 3.78364 7.82 3.96364 7.28V4.95091H0.978636C0.369545 6.17091 0 7.53273 0 9C0 10.4673 0.369545 11.8291 0.978636 13.0491L3.96364 10.72Z" fill="#FBBC05"/>
  <path d="M9 3.57955C10.3214 3.57955 11.505 4.03409 12.4364 4.92545L15.0018 2.36C13.4636 0.927273 11.4264 0 9 0C5.45045 0 2.43955 2.04364 0.978638 4.95091L3.96364 7.28C4.67182 5.15455 6.65636 3.57955 9 3.57955Z" fill="#EA4335"/>
</svg>